<svg id="visual" viewBox="0 0 900 450" width="900" height="450" xmlns="http://www.w3.org/2000/svg" xmlns:xlink="http://www.w3.org/1999/xlink" version="1.1"><rect width="900" height="450" fill="#001829"></rect><g><g transform="translate(375 306)"><path d="M0 -27.7L24 -13.8L24 13.8L0 27.7L-24 13.8L-24 -13.8Z" fill="none" stroke="#297EA6" stroke-width="2"></path></g><g transform="translate(440 214)"><path d="M0 -27L23.4 -13.5L23.4 13.5L0 27L-23.4 13.5L-23.4 -13.5Z" fill="none" stroke="#297EA6" stroke-width="2"></path></g><g transform="translate(828 279)"><path d="M0 -27L23.4 -13.5L23.4 13.5L0 27L-23.4 13.5L-23.4 -13.5Z" fill="none" stroke="#297EA6" stroke-width="2"></path></g><g transform="translate(482 114)"><path d="M0 -27L23.4 -13.5L23.4 13.5L0 27L-23.4 13.5L-23.4 -13.5Z" fill="none" stroke="#297EA6" stroke-width="2"></path></g><g transform="translate(124 236)"><path d="M0 -27L23.4 -13.5L23.4 13.5L0 27L-23.4 13.5L-23.4 -13.5Z" fill="none" stroke="#297EA6" stroke-width="2"></path></g><g transform="translate(711 429)"><path d="M0 -27L23.4 -13.5L23.4 13.5L0 27L-23.4 13.5L-23.4 -13.5Z" fill="none" stroke="#297EA6" stroke-width="2"></path></g><g transform="translate(210 388)"><path d="M0 -27L23.4 -13.5L23.4 13.5L0 27L-23.4 13.5L-23.4 -13.5Z" fill="none" stroke="#297EA6" stroke-width="2"></path></g><g transform="translate(687 144)"><path d="M0 -27L23.4 -13.5L23.4 13.5L0 27L-23.4 13.5L-23.4 -13.5Z" fill="none" stroke="#297EA6" stroke-width="2"></path></g><g transform="translate(524 25)"><path d="M0 -27L23.4 -13.5L23.4 13.5L0 27L-23.4 13.5L-23.4 -13.5Z" fill="none" stroke="#297EA6" stroke-width="2"></path></g><g transform="translate(818 379)"><path d="M0 -27L23.4 -13.5L23.4 13.5L0 27L-23.4 13.5L-23.4 -13.5Z" fill="none" stroke="#297EA6" stroke-width="2"></path></g><g transform="translate(408 77)"><path d="M0 -27L23.4 -13.5L23.4 13.5L0 27L-23.4 13.5L-23.4 -13.5Z" fill="none" stroke="#297EA6" stroke-width="2"></path></g><g transform="translate(473 327)"><path d="M0 -27L23.4 -13.5L23.4 13.5L0 27L-23.4 13.5L-23.4 -13.5Z" fill="none" stroke="#297EA6" stroke-width="2"></path></g><g transform="translate(699 312)"><path d="M0 -27L23.4 -13.5L23.4 13.5L0 27L-23.4 13.5L-23.4 -13.5Z" fill="none" stroke="#297EA6" stroke-width="2"></path></g><g transform="translate(687 54)"><path d="M0 -27L23.4 -13.5L23.4 13.5L0 27L-23.4 13.5L-23.4 -13.5Z" fill="none" stroke="#297EA6" stroke-width="2"></path></g><g transform="translate(300 362)"><path d="M0 -27L23.4 -13.5L23.4 13.5L0 27L-23.4 13.5L-23.4 -13.5Z" fill="none" stroke="#297EA6" stroke-width="2"></path></g><g transform="translate(65 443)"><path d="M0 -27L23.4 -13.5L23.4 13.5L0 27L-23.4 13.5L-23.4 -13.5Z" fill="none" stroke="#297EA6" stroke-width="2"></path></g><g transform="translate(322 227)"><path d="M0 -27L23.4 -13.5L23.4 13.5L0 27L-23.4 13.5L-23.4 -13.5Z" fill="none" stroke="#297EA6" stroke-width="2"></path></g><g transform="translate(415 360)"><path d="M0 -27L23.4 -13.5L23.4 13.5L0 27L-23.4 13.5L-23.4 -13.5Z" fill="none" stroke="#297EA6" stroke-width="2"></path></g><g transform="translate(12 169)"><path d="M0 -27L23.4 -13.5L23.4 13.5L0 27L-23.4 13.5L-23.4 -13.5Z" fill="none" stroke="#297EA6" stroke-width="2"></path></g><g transform="translate(508 273)"><path d="M0 -27L23.4 -13.5L23.4 13.5L0 27L-23.4 13.5L-23.4 -13.5Z" fill="none" stroke="#297EA6" stroke-width="2"></path></g><g transform="translate(111 135)"><path d="M0 -27L23.4 -13.5L23.4 13.5L0 27L-23.4 13.5L-23.4 -13.5Z" fill="none" stroke="#297EA6" stroke-width="2"></path></g><g transform="translate(55 46)"><path d="M0 -27L23.4 -13.5L23.4 13.5L0 27L-23.4 13.5L-23.4 -13.5Z" fill="none" stroke="#297EA6" stroke-width="2"></path></g><g transform="translate(361 172)"><path d="M0 -27L23.4 -13.5L23.4 13.5L0 27L-23.4 13.5L-23.4 -13.5Z" fill="none" stroke="#297EA6" stroke-width="2"></path></g><g transform="translate(320 20)"><path d="M0 -27L23.4 -13.5L23.4 13.5L0 27L-23.4 13.5L-23.4 -13.5Z" fill="none" stroke="#297EA6" stroke-width="2"></path></g><g transform="translate(258 264)"><path d="M0 -27L23.4 -13.5L23.4 13.5L0 27L-23.4 13.5L-23.4 -13.5Z" fill="none" stroke="#297EA6" stroke-width="2"></path></g><g transform="translate(43 344)"><path d="M0 -27L23.4 -13.5L23.4 13.5L0 27L-23.4 13.5L-23.4 -13.5Z" fill="none" stroke="#297EA6" stroke-width="2"></path></g><g transform="translate(560 177)"><path d="M0 -27L23.4 -13.5L23.4 13.5L0 27L-23.4 13.5L-23.4 -13.5Z" fill="none" stroke="#297EA6" stroke-width="2"></path></g><g transform="translate(607 242)"><path d="M0 -27L23.4 -13.5L23.4 13.5L0 27L-23.4 13.5L-23.4 -13.5Z" fill="none" stroke="#297EA6" stroke-width="2"></path></g><g transform="translate(169 44)"><path d="M0 -27L23.4 -13.5L23.4 13.5L0 27L-23.4 13.5L-23.4 -13.5Z" fill="none" stroke="#297EA6" stroke-width="2"></path></g><g transform="translate(827 184)"><path d="M0 -27L23.4 -13.5L23.4 13.5L0 27L-23.4 13.5L-23.4 -13.5Z" fill="none" stroke="#297EA6" stroke-width="2"></path></g><g transform="translate(556 302)"><path d="M0 -27L23.4 -13.5L23.4 13.5L0 27L-23.4 13.5L-23.4 -13.5Z" fill="none" stroke="#297EA6" stroke-width="2"></path></g><g transform="translate(341 445)"><path d="M0 -27L23.4 -13.5L23.4 13.5L0 27L-23.4 13.5L-23.4 -13.5Z" fill="none" stroke="#297EA6" stroke-width="2"></path></g><g transform="translate(743 180)"><path d="M0 -27L23.4 -13.5L23.4 13.5L0 27L-23.4 13.5L-23.4 -13.5Z" fill="none" stroke="#297EA6" stroke-width="2"></path></g><g transform="translate(763 14)"><path d="M0 -27L23.4 -13.5L23.4 13.5L0 27L-23.4 13.5L-23.4 -13.5Z" fill="none" stroke="#297EA6" stroke-width="2"></path></g><g transform="translate(115 384)"><path d="M0 -27L23.4 -13.5L23.4 13.5L0 27L-23.4 13.5L-23.4 -13.5Z" fill="none" stroke="#297EA6" stroke-width="2"></path></g><g transform="translate(893 410)"><path d="M0 -27L23.4 -13.5L23.4 13.5L0 27L-23.4 13.5L-23.4 -13.5Z" fill="none" stroke="#297EA6" stroke-width="2"></path></g><g transform="translate(63 287)"><path d="M0 -27L23.4 -13.5L23.4 13.5L0 27L-23.4 13.5L-23.4 -13.5Z" fill="none" stroke="#297EA6" stroke-width="2"></path></g><g transform="translate(880 216)"><path d="M0 -27L23.4 -13.5L23.4 13.5L0 27L-23.4 13.5L-23.4 -13.5Z" fill="none" stroke="#297EA6" stroke-width="2"></path></g><g transform="translate(589 373)"><path d="M0 -27L23.4 -13.5L23.4 13.5L0 27L-23.4 13.5L-23.4 -13.5Z" fill="none" stroke="#297EA6" stroke-width="2"></path></g><g transform="translate(641 404)"><path d="M0 -27L23.4 -13.5L23.4 13.5L0 27L-23.4 13.5L-23.4 -13.5Z" fill="none" stroke="#297EA6" stroke-width="2"></path></g><g transform="translate(215 166)"><path d="M0 -27L23.4 -13.5L23.4 13.5L0 27L-23.4 13.5L-23.4 -13.5Z" fill="none" stroke="#297EA6" stroke-width="2"></path></g><g transform="translate(128 438)"><path d="M0 -27L23.4 -13.5L23.4 13.5L0 27L-23.4 13.5L-23.4 -13.5Z" fill="none" stroke="#297EA6" stroke-width="2"></path></g><g transform="translate(613 77)"><path d="M0 -27L23.4 -13.5L23.4 13.5L0 27L-23.4 13.5L-23.4 -13.5Z" fill="none" stroke="#297EA6" stroke-width="2"></path></g><g transform="translate(461 22)"><path d="M0 -27L23.4 -13.5L23.4 13.5L0 27L-23.4 13.5L-23.4 -13.5Z" fill="none" stroke="#297EA6" stroke-width="2"></path></g><g transform="translate(165 323)"><path d="M0 -27L23.4 -13.5L23.4 13.5L0 27L-23.4 13.5L-23.4 -13.5Z" fill="none" stroke="#297EA6" stroke-width="2"></path></g><g transform="translate(407 138)"><path d="M0 -27L23.4 -13.5L23.4 13.5L0 27L-23.4 13.5L-23.4 -13.5Z" fill="none" stroke="#297EA6" stroke-width="2"></path></g><g transform="translate(301 133)"><path d="M0 -27L23.4 -13.5L23.4 13.5L0 27L-23.4 13.5L-23.4 -13.5Z" fill="none" stroke="#297EA6" stroke-width="2"></path></g><g transform="translate(429 415)"><path d="M0 -27L23.4 -13.5L23.4 13.5L0 27L-23.4 13.5L-23.4 -13.5Z" fill="none" stroke="#297EA6" stroke-width="2"></path></g><g transform="translate(529 440)"><path d="M0 -27L23.4 -13.5L23.4 13.5L0 27L-23.4 13.5L-23.4 -13.5Z" fill="none" stroke="#297EA6" stroke-width="2"></path></g><g transform="translate(249 11)"><path d="M0 -27L23.4 -13.5L23.4 13.5L0 27L-23.4 13.5L-23.4 -13.5Z" fill="none" stroke="#297EA6" stroke-width="2"></path></g><g transform="translate(834 58)"><path d="M0 -27L23.4 -13.5L23.4 13.5L0 27L-23.4 13.5L-23.4 -13.5Z" fill="none" stroke="#297EA6" stroke-width="2"></path></g><g transform="translate(12 266)"><path d="M0 -27L23.4 -13.5L23.4 13.5L0 27L-23.4 13.5L-23.4 -13.5Z" fill="none" stroke="#297EA6" stroke-width="2"></path></g><g transform="translate(885 289)"><path d="M0 -27L23.4 -13.5L23.4 13.5L0 27L-23.4 13.5L-23.4 -13.5Z" fill="none" stroke="#297EA6" stroke-width="2"></path></g><g transform="translate(771 421)"><path d="M0 -27L23.4 -13.5L23.4 13.5L0 27L-23.4 13.5L-23.4 -13.5Z" fill="none" stroke="#297EA6" stroke-width="2"></path></g><g transform="translate(404 19)"><path d="M0 -27L23.4 -13.5L23.4 13.5L0 27L-23.4 13.5L-23.4 -13.5Z" fill="none" stroke="#297EA6" stroke-width="2"></path></g><g transform="translate(13 399)"><path d="M0 -27L23.4 -13.5L23.4 13.5L0 27L-23.4 13.5L-23.4 -13.5Z" fill="none" stroke="#297EA6" stroke-width="2"></path></g><g transform="translate(107 75)"><path d="M0 -27L23.4 -13.5L23.4 13.5L0 27L-23.4 13.5L-23.4 -13.5Z" fill="none" stroke="#297EA6" stroke-width="2"></path></g><g transform="translate(401 254)"><path d="M0 -27L23.4 -13.5L23.4 13.5L0 27L-23.4 13.5L-23.4 -13.5Z" fill="none" stroke="#297EA6" stroke-width="2"></path></g><g transform="translate(876 107)"><path d="M0 -27L23.4 -13.5L23.4 13.5L0 27L-23.4 13.5L-23.4 -13.5Z" fill="none" stroke="#297EA6" stroke-width="2"></path></g><g transform="translate(363 388)"><path d="M0 -27L23.4 -13.5L23.4 13.5L0 27L-23.4 13.5L-23.4 -13.5Z" fill="none" stroke="#297EA6" stroke-width="2"></path></g><g transform="translate(55 106)"><path d="M0 -27L23.4 -13.5L23.4 13.5L0 27L-23.4 13.5L-23.4 -13.5Z" fill="none" stroke="#297EA6" stroke-width="2"></path></g><g transform="translate(621 310)"><path d="M0 -27L23.4 -13.5L23.4 13.5L0 27L-23.4 13.5L-23.4 -13.5Z" fill="none" stroke="#297EA6" stroke-width="2"></path></g><g transform="translate(758 259)"><path d="M0 -27L23.4 -13.5L23.4 13.5L0 27L-23.4 13.5L-23.4 -13.5Z" fill="none" stroke="#297EA6" stroke-width="2"></path></g><g transform="translate(764 119)"><path d="M0 -27L23.4 -13.5L23.4 13.5L0 27L-23.4 13.5L-23.4 -13.5Z" fill="none" stroke="#297EA6" stroke-width="2"></path></g><g transform="translate(529 377)"><path d="M0 -27L23.4 -13.5L23.4 13.5L0 27L-23.4 13.5L-23.4 -13.5Z" fill="none" stroke="#297EA6" stroke-width="2"></path></g><g transform="translate(487 171)"><path d="M0 -27L23.4 -13.5L23.4 13.5L0 27L-23.4 13.5L-23.4 -13.5Z" fill="none" stroke="#297EA6" stroke-width="2"></path></g><g transform="translate(116 12)"><path d="M0 -27L23.4 -13.5L23.4 13.5L0 27L-23.4 13.5L-23.4 -13.5Z" fill="none" stroke="#297EA6" stroke-width="2"></path></g><g transform="translate(679 230)"><path d="M0 -27L23.4 -13.5L23.4 13.5L0 27L-23.4 13.5L-23.4 -13.5Z" fill="none" stroke="#297EA6" stroke-width="2"></path></g><g transform="translate(227 106)"><path d="M0 -27L23.4 -13.5L23.4 13.5L0 27L-23.4 13.5L-23.4 -13.5Z" fill="none" stroke="#297EA6" stroke-width="2"></path></g><g transform="translate(828 2)"><path d="M0 -27L23.4 -13.5L23.4 13.5L0 27L-23.4 13.5L-23.4 -13.5Z" fill="none" stroke="#297EA6" stroke-width="2"></path></g><g transform="translate(186 256)"><path d="M0 -27L23.4 -13.5L23.4 13.5L0 27L-23.4 13.5L-23.4 -13.5Z" fill="none" stroke="#297EA6" stroke-width="2"></path></g><g transform="translate(896 11)"><path d="M0 -27L23.4 -13.5L23.4 13.5L0 27L-23.4 13.5L-23.4 -13.5Z" fill="none" stroke="#297EA6" stroke-width="2"></path></g><g transform="translate(636 23)"><path d="M0 -27L23.4 -13.5L23.4 13.5L0 27L-23.4 13.5L-23.4 -13.5Z" fill="none" stroke="#297EA6" stroke-width="2"></path></g><g transform="translate(265 422)"><path d="M0 -27L23.4 -13.5L23.4 13.5L0 27L-23.4 13.5L-23.4 -13.5Z" fill="none" stroke="#297EA6" stroke-width="2"></path></g><g transform="translate(285 71)"><path d="M0 -27L23.4 -13.5L23.4 13.5L0 27L-23.4 13.5L-23.4 -13.5Z" fill="none" stroke="#297EA6" stroke-width="2"></path></g><g transform="translate(645 185)"><path d="M0 -27L23.4 -13.5L23.4 13.5L0 27L-23.4 13.5L-23.4 -13.5Z" fill="none" stroke="#297EA6" stroke-width="2"></path></g><g transform="translate(559 117)"><path d="M0 -27L23.4 -13.5L23.4 13.5L0 27L-23.4 13.5L-23.4 -13.5Z" fill="none" stroke="#297EA6" stroke-width="2"></path></g><g transform="translate(735 375)"><path d="M0 -27L23.4 -13.5L23.4 13.5L0 27L-23.4 13.5L-23.4 -13.5Z" fill="none" stroke="#297EA6" stroke-width="2"></path></g><g transform="translate(87 194)"><path d="M0 -27L23.4 -13.5L23.4 13.5L0 27L-23.4 13.5L-23.4 -13.5Z" fill="none" stroke="#297EA6" stroke-width="2"></path></g><g transform="translate(593 438)"><path d="M0 -27L23.4 -13.5L23.4 13.5L0 27L-23.4 13.5L-23.4 -13.5Z" fill="none" stroke="#297EA6" stroke-width="2"></path></g><g transform="translate(167 129)"><path d="M0 -27L23.4 -13.5L23.4 13.5L0 27L-23.4 13.5L-23.4 -13.5Z" fill="none" stroke="#297EA6" stroke-width="2"></path></g><g transform="translate(617 134)"><path d="M0 -27L23.4 -13.5L23.4 13.5L0 27L-23.4 13.5L-23.4 -13.5Z" fill="none" stroke="#297EA6" stroke-width="2"></path></g><g transform="translate(869 343)"><path d="M0 -27L23.4 -13.5L23.4 13.5L0 27L-23.4 13.5L-23.4 -13.5Z" fill="none" stroke="#297EA6" stroke-width="2"></path></g><g transform="translate(345 86)"><path d="M0 -27L23.4 -13.5L23.4 13.5L0 27L-23.4 13.5L-23.4 -13.5Z" fill="none" stroke="#297EA6" stroke-width="2"></path></g><g transform="translate(776 338)"><path d="M0 -27L23.4 -13.5L23.4 13.5L0 27L-23.4 13.5L-23.4 -13.5Z" fill="none" stroke="#297EA6" stroke-width="2"></path></g><g transform="translate(268 196)"><path d="M0 -27L23.4 -13.5L23.4 13.5L0 27L-23.4 13.5L-23.4 -13.5Z" fill="none" stroke="#297EA6" stroke-width="2"></path></g><g transform="translate(314 302)"><path d="M0 -27L23.4 -13.5L23.4 13.5L0 27L-23.4 13.5L-23.4 -13.5Z" fill="none" stroke="#297EA6" stroke-width="2"></path></g><g transform="translate(8 15)"><path d="M0 -27L23.4 -13.5L23.4 13.5L0 27L-23.4 13.5L-23.4 -13.5Z" fill="none" stroke="#297EA6" stroke-width="2"></path></g><g transform="translate(243 325)"><path d="M0 -27L23.4 -13.5L23.4 13.5L0 27L-23.4 13.5L-23.4 -13.5Z" fill="none" stroke="#297EA6" stroke-width="2"></path></g><g transform="translate(828 448)"><path d="M0 -27L23.4 -13.5L23.4 13.5L0 27L-23.4 13.5L-23.4 -13.5Z" fill="none" stroke="#297EA6" stroke-width="2"></path></g><g transform="translate(211 444)"><path d="M0 -27L23.4 -13.5L23.4 13.5L0 27L-23.4 13.5L-23.4 -13.5Z" fill="none" stroke="#297EA6" stroke-width="2"></path></g><g transform="translate(160 185)"><path d="M0 -27L23.4 -13.5L23.4 13.5L0 27L-23.4 13.5L-23.4 -13.5Z" fill="none" stroke="#297EA6" stroke-width="2"></path></g><g transform="translate(1 76)"><path d="M0 -27L23.4 -13.5L23.4 13.5L0 27L-23.4 13.5L-23.4 -13.5Z" fill="none" stroke="#297EA6" stroke-width="2"></path></g><g transform="translate(581 7)"><path d="M0 -27L23.4 -13.5L23.4 13.5L0 27L-23.4 13.5L-23.4 -13.5Z" fill="none" stroke="#297EA6" stroke-width="2"></path></g><g transform="translate(119 292)"><path d="M0 -27L23.4 -13.5L23.4 13.5L0 27L-23.4 13.5L-23.4 -13.5Z" fill="none" stroke="#297EA6" stroke-width="2"></path></g><g transform="translate(549 231)"><path d="M0 -27L23.4 -13.5L23.4 13.5L0 27L-23.4 13.5L-23.4 -13.5Z" fill="none" stroke="#297EA6" stroke-width="2"></path></g></g></svg>
